/* XPM */
static char * debian_xpm[] = {
"16 16 2 1",
" 	c None",
".	c #BF0348",
"                ",
"     ......     ",
"    ...   ...   ",
"   ..      ..   ",
"   .        ..  ",
"  .    .    .   ",
"  .         ..  ",
"  .   .     .   ",
"  .   .     .   ",
"  .    .   .    ",
"  .     ...     ",
"  ..            ",
"   .            ",
"   ..           ",
"     .          ",
"                "};
