/* XPM */
static char *display.im6[] = {
/* columns rows colors chars-per-pixel */
"31 32 253 2",
"   c #181B2C",
".  c #1B1C38",
"X  c #12143D",
"o  c #30343C",
"O  c #040F4F",
"+  c #030A46",
"@  c #1B1E41",
"#  c #181C4C",
"$  c #171E5A",
"%  c #141953",
"&  c #091868",
"*  c #1E244B",
"=  c #1D245A",
"-  c #1D2A69",
";  c #172773",
":  c #1C2C7E",
">  c #262A47",
",  c #25284A",
"<  c #282250",
"1  c #28245D",
"2  c #2D3152",
"3  c #34314A",
"4  c #3A3E59",
"5  c #242B60",
"6  c #222B6D",
"7  c #202D74",
"8  c #263374",
"9  c #23307F",
"0  c #2B3375",
"q  c #2E3A75",
"w  c #2E3B78",
"e  c #313E69",
"r  c #3C3661",
"t  c #2F427B",
"y  c #31427F",
"u  c #3C4574",
"i  c #480405",
"p  c #513F2E",
"a  c #5D3E3A",
"s  c #7B1117",
"d  c #770918",
"f  c #4A3E48",
"g  c #5C5838",
"h  c #655A3C",
"j  c #79482F",
"k  c #784933",
"l  c #414250",
"z  c #4D4C54",
"x  c #50474C",
"c  c #5D5940",
"v  c #54545C",
"b  c #5D5F5F",
"n  c #5D5B54",
"m  c #444560",
"M  c #464966",
"N  c #464F7C",
"B  c #4A4D75",
"V  c #455176",
"C  c #485075",
"Z  c #48507A",
"A  c #555F71",
"S  c #5B5F7A",
"D  c #5C6172",
"F  c #5D6B7B",
"G  c #605858",
"H  c #725F4C",
"J  c #745F53",
"K  c #605E6D",
"L  c #6C684D",
"P  c #7E675C",
"I  c #7C7444",
"U  c #75745D",
"Y  c #757D56",
"T  c #787659",
"R  c #626761",
"E  c #6A606E",
"W  c #6D6B6A",
"Q  c #616D6C",
"!  c #616673",
"~  c #657160",
"^  c #6F717A",
"/  c #6B7575",
"(  c #7B7667",
")  c #737372",
"_  c #7F7E7F",
"`  c #797B7A",
"'  c #192B82",
"]  c #1A2F91",
"[  c #103489",
"{  c #1F3080",
"}  c #1E318D",
"|  c #22348B",
" . c #293481",
".. c #2C3C8F",
"X. c #2B3A82",
"o. c #243794",
"O. c #22379A",
"+. c #263994",
"@. c #2C3E95",
"#. c #2B3E9A",
"$. c #2D4099",
"%. c #344282",
"&. c #314298",
"*. c #334294",
"=. c #2C43A0",
"-. c #455185",
";. c #495381",
":. c #5D6382",
">. c #5E668C",
",. c #686C84",
"<. c #616995",
"1. c #777A8A",
"2. c #7B7F8E",
"3. c #854521",
"4. c #8F4226",
"5. c #A5543C",
"6. c #B95B2F",
"7. c #B8623B",
"8. c #815B4A",
"9. c #816663",
"0. c #B25C5C",
"q. c #AD6548",
"w. c #A77D6D",
"e. c #BE7D61",
"r. c #B87270",
"t. c #CE6535",
"y. c #C66A46",
"u. c #CB6D44",
"i. c #CB714C",
"p. c #ED5A5A",
"a. c #FF4343",
"s. c #FA5050",
"d. c #FF5D5C",
"f. c #FF6565",
"g. c #FF6A6A",
"h. c #FF7374",
"j. c #FF787A",
"k. c #F57473",
"l. c #A39736",
"z. c #969159",
"x. c #9B9557",
"c. c #87896A",
"v. c #A59B42",
"b. c #A38477",
"n. c #B4AA4E",
"m. c #DD8765",
"M. c #828286",
"N. c #8A8589",
"B. c #8A8B8A",
"V. c #898A95",
"C. c #8D9291",
"Z. c #8D909E",
"A. c #96948E",
"S. c #95989A",
"D. c #999694",
"F. c #9E9B9A",
"G. c #979798",
"H. c #898EA2",
"J. c #8593A7",
"K. c #9E9FA7",
"L. c #979CBA",
"P. c #9FA7B9",
"I. c #A18980",
"U. c #A1928A",
"Y. c #A39D9D",
"T. c #A5A183",
"R. c #ADAC87",
"E. c #AFAF8E",
"W. c #B6B49A",
"Q. c #B3B296",
"!. c #A3A2A0",
"~. c #A6ACAE",
"^. c #A9A7A2",
"/. c #A8AAAC",
"(. c #BCBCA5",
"). c #B7B6B6",
"_. c #B8B6B1",
"`. c #B9BABB",
"'. c #BAC0CD",
"]. c #C69F8F",
"[. c #C3B796",
"{. c #C7A9AB",
"}. c #C3AEA5",
"|. c #CAB0A6",
" X c #C2B6B1",
".X c #E68685",
"XX c #FE8484",
"oX c #FF8C8C",
"OX c #FF9394",
"+X c #FFA4A4",
"@X c #FFACAC",
"#X c #FFAFB0",
"$X c #FCB7B7",
"%X c #C0C0AE",
"&X c #C7C7BA",
"*X c #CBC9B4",
"=X c #CDCDBB",
"-X c #D3C0B5",
";X c #D2D1BE",
":X c #DED9B5",
">X c #DAD5B2",
",X c #FFC5B9",
"<X c #C4C4C2",
"1X c #C5C8C7",
"2X c #C7C9CF",
"3X c #CACAC7",
"4X c #CDCCCD",
"5X c #C8CDD0",
"6X c #D4D4C7",
"7X c #D2D2CF",
"8X c #D8D6CA",
"9X c #D9D9CD",
"0X c #D6D7D6",
"qX c #D7D7DD",
"wX c #DCDBD4",
"eX c #DEDDDC",
"rX c #DADBE0",
"tX c #E0DFD7",
"yX c #E1DFDF",
"uX c #E8DAD6",
"iX c #F7CACA",
"pX c #FEC3C3",
"aX c #FFCECD",
"sX c #F7D7D6",
"dX c #FFD4D4",
"fX c #FFDCDB",
"gX c #E8E5CE",
"hX c #E5E3DD",
"jX c #EAE7D3",
"kX c #EDEAD7",
"lX c #FFEFDB",
"zX c #F6F1D9",
"xX c #FFF7DB",
"cX c #FFF8DE",
"vX c #E5E5E1",
"bX c #EDECE5",
"nX c #ECECEC",
"mX c #E7E4E8",
"MX c #EEF0EB",
"NX c #EDFAF8",
"BX c #F7E7E6",
"VX c #FFE3E3",
"CX c #FFECEC",
"ZX c #F3F2ED",
"AX c #FEF7E2",
"SX c #FFFAE5",
"DX c #FFFAEB",
"FX c #F5F5F3",
"GX c #F3F2F8",
"HX c #F4FDFC",
"JX c #FDF4F3",
"KX c #FDFCF4",
"LX c gray100",
/* pixels */
"LXLXLXLXLXLXLXLXLXSXDXKXKXHXFXLXLXLXLXLXLXLXLXLXLXLXLXLXLXLXLX",
"LXLXLXAXKXLXR.9XLXLXLXKXKX*X(.LXKXDXLXLXLXLXLXLXLXLXLXLXLXLXLX",
"LXLXLXLXLXLXMXHXVXdXfXKXLXHXJXLXLXDXLXLXLXLXLXLXLXLXLXLXKXLXLX",
"LXLXZX%XLXLXJXLXoXa.h.f.XXOX@XfXCXLXLXLXLXLXLXLXLXLXHXLXLXLXLX",
"KXLXZX(.LXfXf.+XaXXX@XOXg.f.XXXXf.pXLXDXKXLXLXLXLXLXLXmX^.).LX",
"xXLXLXLXdXd.h.,XKXLXLXLXfXfXJX$Xj.aXLXKXKXLXLXLXLXvXH.L n FXLX",
"LXLXLXiXs.j.#XHXU.LX*XW.LXLXLXLXSXKXMX&XLXLXLXLXL.V Y g 4XLXHX",
"LXLXCXXXk.lXLXLXtXFXbXFXLXFX6XKXKXLXbX(.LXLXnX<.l.) 4 ) LXLXLX",
"U.NX@Xp.BXKXLXW.hXzXjXhXQ.FXE.HXLXLXLXLXLXeXA X.n.U , 0XLXKXLX",
"8XsXj..XLXAXKXwXbXDX:XZXhXLXLXLXxXKXLXLXyXK Q F F 2 _ LXHXLXLX",
"LXCX$XiXKXLXLXLXLXLXgXjXLXKXKXLXLXLXKXGXA v.#.-.U h qXLXLXLXLX",
"KXLXLXLXLXLXLXLXLXLXKX>XLXLXLXLXLXLXLXC.y c.z.x.I ( LXLXLXLXLX",
"LXLXKXLX=X6XLXLXLXLXLXkX[.|.ZXLXHXLX1.c T R ~ A 3 ^ LXLXLXLXLX",
"LXLXLXLX8XwXLXLXLXLXLXyX3.6.9.P.LXKX! a i.k k H p N.LXHXLXLXLX",
"LXLXLXLXLXLXLXLXLXLXLXHXb.t.5.e LXLX XJ 7.W e.m.` n LXLXLXLXLX",
"LXLXLXLXLXLXLXLXLXLXLXLXLXE 4.r '.LX X|.].U.y.y.8.w.LXKXLXLXLX",
"LXLXLXLXLXLXLXLXLXLXLXLXLX-.@ 0 %.wX<X`.2X~.q.w.P vXLXLXLXLXLX",
"LXLXLXLXLXLXLXLXLXLXLXLXLXB % X.o.w Z.FXyXeXnXS./.LXKXLXLXLXLX",
"LXLXLXLXLXLXLXLXLXLXLXLXLX:.O 6 *.] <.LXLXLXLXD.!.LXHXLXLXLXLX",
"LXLXLXLXLXLXLXLXLXLXLXLXLX2X,.l % | N KXLXLXLX).W JXLXLXLXLXLX",
"LXLXLXLXLXLXLXLXLXLXLXLXLXLXLXFXM.$ 8 wXLXLXLXyXv B 5XLXLXLXLX",
"LXLXLXLXLXLXLXLXLXLXLXLXLXLXHXLXLXV.& K.LXHXLXGXD.- { S MXLXLX",
"LXLXLXLXLXLXLXLXLXLXLXLXLXLXLXHXKX7X; Z JXLXLXLX4Xv ' 5 hXLXLX",
"LXLXLXLXLXLXLXLXLXLXLXLXLXLXLXLXLXhXq : /.LXFXLXnXD.= M KXLXLX",
"LXLXLXLXLXLXLXLXLXLXLXLXLXLXLXLXLXJXu O.0 wXLXLXFX1Xz K HXLXLX",
"LXLXLXLXLXLXLXLXLXLXLXLXLXLXLXLXLXLX:.| o.u 1XLXKX4XB.j uXLXLX",
"LXLXLXLXLXLXLXLXLXLXLXLXLXLXLXLXHXLXZ.' &.o.8 S ^ W l f ZXLXLX",
"LXLXLXLXLXLXLXLXLXLXLXLXLXLXLXLXLXLXwX7 @.@.#.} : :  .$ M wXHX",
"LXLXLXLXLXLXLXLXLXLXLXLXLXLXLXLXLXKXLXJ.[ =.@.@.@.@...0 + 2.LX",
"LXLXLXLXLXLXLXLXLXLXLXLXLXLXLXLXLXLXHXr.d 1 | #.#.@.9 6 < x 1X",
"LXLXLXLXLXLXLXLXLXLXLXLXLXLXLXLXLXLXLX{.0.a o > , @ .   s i / ",
"LXLXLXLXLXLXLXLXLXLXLXLXLXLXLXLXLXLXLXLXLXHXtX_.A.` ) F.Y.Y.vX"
};
